%TF.GenerationSoftware,KiCad,Pcbnew,(5.1.9)-1*%
%TF.CreationDate,2021-02-01T17:32:41+02:00*%
%TF.ProjectId,colour_box,636f6c6f-7572-45f6-926f-782e6b696361,rev?*%
%TF.SameCoordinates,Original*%
%TF.FileFunction,Copper,L1,Top*%
%TF.FilePolarity,Positive*%
%FSLAX46Y46*%
G04 Gerber Fmt 4.6, Leading zero omitted, Abs format (unit mm)*
G04 Created by KiCad (PCBNEW (5.1.9)-1) date 2021-02-01 17:32:41*
%MOMM*%
%LPD*%
G01*
G04 APERTURE LIST*
%TA.AperFunction,ComponentPad*%
%ADD10R,2.000000X2.000000*%
%TD*%
%TA.AperFunction,ComponentPad*%
%ADD11O,1.600000X1.600000*%
%TD*%
%TA.AperFunction,ComponentPad*%
%ADD12R,1.600000X1.600000*%
%TD*%
%TA.AperFunction,ComponentPad*%
%ADD13C,2.340000*%
%TD*%
%TA.AperFunction,ComponentPad*%
%ADD14C,1.600000*%
%TD*%
%TA.AperFunction,ComponentPad*%
%ADD15C,1.200000*%
%TD*%
%TA.AperFunction,ComponentPad*%
%ADD16R,1.200000X1.200000*%
%TD*%
%TA.AperFunction,Conductor*%
%ADD17C,0.250000*%
%TD*%
G04 APERTURE END LIST*
D10*
%TO.P,Input,1*%
%TO.N,Input*%
X111760000Y-81280000D03*
%TD*%
%TO.P,Output,1*%
%TO.N,Output*%
X144780000Y-95250000D03*
%TD*%
%TO.P,GND,1*%
%TO.N,GND*%
X144780000Y-101600000D03*
%TD*%
%TO.P,+9V,1*%
%TO.N,+9V*%
X139700000Y-101600000D03*
%TD*%
D11*
%TO.P,U1,8*%
%TO.N,+9V*%
X129540000Y-85090000D03*
%TO.P,U1,4*%
%TO.N,GND*%
X121920000Y-92710000D03*
%TO.P,U1,7*%
%TO.N,Net-(C6-Pad1)*%
X129540000Y-87630000D03*
%TO.P,U1,3*%
%TO.N,Net-(C1-Pad2)*%
X121920000Y-90170000D03*
%TO.P,U1,6*%
%TO.N,Net-(C6-Pad1)*%
X129540000Y-90170000D03*
%TO.P,U1,2*%
%TO.N,Net-(C2-Pad2)*%
X121920000Y-87630000D03*
%TO.P,U1,5*%
%TO.N,Net-(C2-Pad1)*%
X129540000Y-92710000D03*
D12*
%TO.P,U1,1*%
X121920000Y-85090000D03*
%TD*%
D13*
%TO.P,100k Volume,1*%
%TO.N,GND*%
X144780000Y-76200000D03*
%TO.P,100k Volume,2*%
%TO.N,Output*%
X139780000Y-76200000D03*
%TO.P,100k Volume,3*%
%TO.N,Net-(C6-Pad2)*%
X134780000Y-76200000D03*
%TD*%
%TO.P,220k Colour,1*%
%TO.N,Net-(C3-Pad1)*%
X123190000Y-76200000D03*
%TO.P,220k Colour,2*%
%TO.N,Net-(C2-Pad1)*%
X118190000Y-76200000D03*
%TO.P,220k Colour,3*%
X113190000Y-76200000D03*
%TD*%
D11*
%TO.P,R3,2*%
%TO.N,Net-(C2-Pad2)*%
X121920000Y-80010000D03*
D14*
%TO.P,R3,1*%
%TO.N,Net-(C3-Pad1)*%
X129540000Y-80010000D03*
%TD*%
D11*
%TO.P,R2,2*%
%TO.N,GND*%
X119380000Y-95250000D03*
D14*
%TO.P,R2,1*%
%TO.N,Net-(C1-Pad2)*%
X111760000Y-95250000D03*
%TD*%
D11*
%TO.P,R1,2*%
%TO.N,Net-(C1-Pad2)*%
X111760000Y-85090000D03*
D14*
%TO.P,R1,1*%
%TO.N,+9V*%
X119380000Y-85090000D03*
%TD*%
D15*
%TO.P,C6,2*%
%TO.N,Net-(C6-Pad2)*%
X142470000Y-87630000D03*
D16*
%TO.P,C6,1*%
%TO.N,Net-(C6-Pad1)*%
X140970000Y-87630000D03*
%TD*%
D14*
%TO.P,C5,2*%
%TO.N,+9V*%
X134660000Y-96520000D03*
%TO.P,C5,1*%
%TO.N,GND*%
X137160000Y-96520000D03*
%TD*%
D15*
%TO.P,C4,2*%
%TO.N,GND*%
X136120000Y-91440000D03*
D16*
%TO.P,C4,1*%
%TO.N,+9V*%
X134620000Y-91440000D03*
%TD*%
D14*
%TO.P,C3,2*%
%TO.N,GND*%
X132040000Y-82550000D03*
%TO.P,C3,1*%
%TO.N,Net-(C3-Pad1)*%
X129540000Y-82550000D03*
%TD*%
%TO.P,C2,2*%
%TO.N,Net-(C2-Pad2)*%
X124500000Y-99060000D03*
%TO.P,C2,1*%
%TO.N,Net-(C2-Pad1)*%
X127000000Y-99060000D03*
%TD*%
D15*
%TO.P,C1,2*%
%TO.N,Net-(C1-Pad2)*%
X113260000Y-90170000D03*
D16*
%TO.P,C1,1*%
%TO.N,Input*%
X111760000Y-90170000D03*
%TD*%
D17*
%TO.N,Net-(C1-Pad2)*%
X113260000Y-86590000D02*
X111760000Y-85090000D01*
X113260000Y-90170000D02*
X113260000Y-86590000D01*
X113260000Y-93750000D02*
X113260000Y-90170000D01*
X111760000Y-95250000D02*
X113260000Y-93750000D01*
X113260000Y-90170000D02*
X121920000Y-90170000D01*
%TO.N,Input*%
X111760000Y-81280000D02*
X110490000Y-82550000D01*
X110490000Y-88900000D02*
X111760000Y-90170000D01*
X110490000Y-82550000D02*
X110490000Y-88900000D01*
%TO.N,Net-(C2-Pad2)*%
X121920000Y-80010000D02*
X123190000Y-81280000D01*
X123190000Y-86360000D02*
X121920000Y-87630000D01*
X123190000Y-81280000D02*
X123190000Y-86360000D01*
X124500000Y-90210000D02*
X121920000Y-87630000D01*
X124500000Y-99060000D02*
X124500000Y-90210000D01*
%TO.N,Net-(C2-Pad1)*%
X118190000Y-81360000D02*
X118190000Y-76200000D01*
X121920000Y-85090000D02*
X118190000Y-81360000D01*
X118190000Y-76200000D02*
X113190000Y-76200000D01*
X127000000Y-95250000D02*
X129540000Y-92710000D01*
X127000000Y-99060000D02*
X127000000Y-95250000D01*
%TO.N,Net-(C3-Pad1)*%
X125730000Y-76200000D02*
X129540000Y-80010000D01*
X123190000Y-76200000D02*
X125730000Y-76200000D01*
X129540000Y-80010000D02*
X129540000Y-82550000D01*
%TO.N,Net-(C6-Pad2)*%
X134780000Y-79091472D02*
X134780000Y-76200000D01*
X142470000Y-86781472D02*
X134780000Y-79091472D01*
X142470000Y-87630000D02*
X142470000Y-86781472D01*
%TO.N,Net-(C6-Pad1)*%
X129540000Y-87630000D02*
X140970000Y-87630000D01*
X129540000Y-90170000D02*
X129540000Y-87630000D01*
%TO.N,Output*%
X144780000Y-81200000D02*
X144780000Y-95250000D01*
X139780000Y-76200000D02*
X144780000Y-81200000D01*
%TD*%
M02*
