M48
; DRILL file {KiCad (5.1.9)-1} date 02/01/21 17:32:39
; FORMAT={-:-/ absolute / inch / decimal}
; #@! TF.CreationDate,2021-02-01T17:32:39+02:00
; #@! TF.GenerationSoftware,Kicad,Pcbnew,(5.1.9)-1
FMAT,2
INCH
T1C0.0236
T2C0.0315
T3C0.0394
T4C0.0512
%
G90
G05
T1
X4.4Y-3.55
X4.4591Y-3.55
X5.3Y-3.6
X5.3591Y-3.6
X5.55Y-3.45
X5.6091Y-3.45
T2
X4.4Y-3.35
X4.4Y-3.75
X4.7Y-3.35
X4.7Y-3.75
X4.8Y-3.15
X4.8Y-3.35
X4.8Y-3.45
X4.8Y-3.55
X4.8Y-3.65
X4.9016Y-3.9
X5.0Y-3.9
X5.1Y-3.15
X5.1Y-3.25
X5.1Y-3.35
X5.1Y-3.45
X5.1Y-3.55
X5.1Y-3.65
X5.1984Y-3.25
X5.3016Y-3.8
X5.4Y-3.8
T3
X4.4Y-3.2
X5.5Y-4.0
X5.7Y-3.75
X5.7Y-4.0
T4
X4.4563Y-3.0
X4.6531Y-3.0
X4.85Y-3.0
X5.3063Y-3.0
X5.5031Y-3.0
X5.7Y-3.0
T0
M30
